<svg xmlns="http://www.w3.org/2000/svg" width="512" height="512"><path d="M511.695 105.876L331.709 255.751 512 375.738V109.254c0-1.152-.119-2.276-.305-3.378zM315.48 269.264l-22.689 18.893c-10.659 8.876-23.725 13.314-36.79 13.314s-26.132-4.438-36.79-13.314l-22.689-18.893L0 400.053v2.694c0 11.161 9.081 20.242 20.242 20.242h471.515c11.161 0 20.242-9.081 20.242-20.242v-2.694L315.48 269.264z" data-original="#000000" xmlns="http://www.w3.org/2000/svg"/><path d="M491.832 89.012H20.168c-2.858.011-4.095 3.652-1.899 5.481L203.55 248.777l.066.055 28.547 23.771c13.812 11.502 33.863 11.502 47.675 0l213.893-178.11c2.196-1.83.958-5.471-1.899-5.481zM.305 105.876A20.225 20.225 0 000 109.254v266.484L180.291 255.75.305 105.876z" data-original="#000000" xmlns="http://www.w3.org/2000/svg"/></svg>